<svg width="33" height="20" viewBox="0 0 33 20" fill="none" xmlns="http://www.w3.org/2000/svg">
<g clip-path="url(#clip0_108_4177)">
<path d="M2.44167 0H30.4417C31.3254 0 32.0417 0.71636 32.0417 1.6V18.4C32.0417 19.2837 31.3254 20 30.4417 20H2.44167C1.55803 20 0.841675 19.2837 0.841675 18.4V1.6C0.841675 0.71636 1.55803 0 2.44167 0V0Z" fill="#2557D6"/>
<path d="M0.851762 9.42758H2.3494L2.68708 8.64718H3.44308L3.77988 9.42758H6.7266V8.83098L6.98964 9.43018H8.51936L8.7824 8.8221V9.42762H16.1056L16.1022 8.14658H16.2439C16.343 8.1499 16.372 8.15866 16.372 8.31562V9.42762H20.1596V9.12942C20.4652 9.28622 20.9403 9.42762 21.5655 9.42762H23.159L23.5 8.64722H24.256L24.5894 9.42762H27.66V8.68634L28.1251 9.42762H30.5857V4.52722H28.1505V5.10594L27.8096 4.52722H25.3108V5.10594L24.9976 4.52722H21.6224C21.0575 4.52722 20.5609 4.60278 20.1597 4.81334V4.52722H17.8305V4.81334C17.5752 4.5963 17.2274 4.52722 16.8405 4.52722H8.33092L7.75996 5.79286L7.1736 4.52722H4.4934V5.10594L4.19892 4.52722H1.91312L0.851562 6.85706V9.4275H0.851682L0.851762 9.42758ZM10.3054 8.72078H9.4068L9.40348 5.96902L8.13248 8.72074H7.36288L6.08856 5.96658V8.72074H4.30576L3.96896 7.93706H2.14388L1.80368 8.72074H0.851643L2.42128 5.20726H3.72364L5.2144 8.53382V5.20726H6.64504L7.79216 7.59074L8.84592 5.20726H10.3053L10.3054 8.72078ZM3.66936 7.20786L3.06944 5.80718L2.47284 7.20786H3.66936ZM13.8814 8.7207H10.9532V5.20722H13.8814V5.93886H11.8298V6.57218H13.8322V7.29238H11.8298V7.99406H13.8813L13.8814 8.7207ZM18.0078 6.1535C18.0078 6.71366 17.6176 7.0031 17.3902 7.08998C17.582 7.1599 17.7458 7.2835 17.8238 7.38586C17.9476 7.56062 17.9689 7.7167 17.9689 8.0305V8.7207H17.0848L17.0814 8.27762C17.0814 8.06622 17.1026 7.76218 16.9431 7.59314C16.815 7.46954 16.6198 7.44274 16.3042 7.44274H15.3633V8.72074H14.4867V5.20722H16.5028C16.9507 5.20722 17.2808 5.21854 17.5642 5.3755C17.8415 5.53246 18.0078 5.76158 18.0078 6.1535ZM16.8998 6.67518C16.7793 6.74526 16.6369 6.74758 16.4662 6.74758H15.4014V5.96718H16.4806C16.6334 5.96718 16.7928 5.97374 16.8964 6.03054C17.01 6.08174 17.0804 6.19066 17.0804 6.34114C17.0804 6.49474 17.0134 6.6183 16.8998 6.67518ZM19.4136 8.7207H18.5192V5.20722H19.4136V8.7207ZM29.796 8.7207H28.5538L26.8924 6.08362V8.7207H25.1073L24.7662 7.93702H22.9454L22.6146 8.7207H21.5886C21.1627 8.7207 20.6231 8.63042 20.3177 8.3321C20.0097 8.03378 19.8494 7.6297 19.8494 6.99078C19.8494 6.4697 19.9452 5.99334 20.3219 5.6169C20.6053 5.3365 21.0491 5.20722 21.6531 5.20722H22.5017V5.96006H21.6708C21.351 5.96006 21.1703 6.00566 20.9964 6.16818C20.847 6.31614 20.7444 6.59578 20.7444 6.96406C20.7444 7.34046 20.8225 7.6119 20.9854 7.78918C21.1203 7.92822 21.3656 7.97038 21.5962 7.97038H21.9899L23.2253 5.20734H24.5387L26.0228 8.53058V5.20738H27.3574L28.8982 7.65434V5.20738H29.796V8.7207ZM24.468 7.2079L23.8614 5.80722L23.2581 7.2079H24.468ZM32.0296 14.3311C31.8167 14.6294 31.4018 14.7806 30.8401 14.7806H29.1474V14.027H30.8332C31.0005 14.027 31.1175 14.0059 31.188 13.94C31.2546 13.8811 31.2922 13.7979 31.2916 13.7109C31.2916 13.6084 31.249 13.5271 31.1845 13.4784C31.1209 13.4247 31.0284 13.4004 30.8756 13.4004C30.0527 13.3736 29.0259 13.4247 29.0259 12.3127C29.0259 11.803 29.3636 11.2664 30.2834 11.2664H32.0294V10.5673H30.4071C29.9176 10.5673 29.562 10.6797 29.3101 10.8542V10.5672H26.9107C26.5269 10.5672 26.0766 10.6584 25.8636 10.8542V10.5672H21.5788V10.8542C21.2378 10.6185 20.6624 10.5672 20.3968 10.5672H17.5706V10.8542C17.3008 10.6039 16.7009 10.5672 16.3351 10.5672H13.172L12.4483 11.3178L11.7703 10.5672H7.04512V15.4708H11.6811L12.427 14.7083L13.1296 15.4708L15.9872 15.4733V14.3197H16.2681C16.6472 14.3253 17.0945 14.3106 17.489 14.1473V15.4707H19.8461V14.1926H19.9598C20.1049 14.1926 20.1192 14.1983 20.1192 14.3372V15.4705H27.2796C27.7342 15.4705 28.2094 15.3591 28.4726 15.1567V15.4705H30.7438C31.2164 15.4705 31.6779 15.407 32.0291 15.2445L32.0292 14.3309L32.0296 14.3311ZM17.832 12.4449C17.832 13.4211 17.0718 13.6227 16.3056 13.6227H15.2119V14.8015H13.5082L12.4289 13.638L11.3072 14.8015H7.83512V11.2871H11.3605L12.439 12.4391L13.554 11.2871H16.3548C17.0504 11.2871 17.832 11.4716 17.832 12.4449ZM10.8632 14.0623H8.70804V13.3631H10.6324V12.646H8.70804V12.0071H10.9056L11.8644 13.0312L10.8632 14.0623ZM14.3356 14.4647L12.9898 13.0331L14.3356 11.6471V14.4647ZM16.3258 12.902H15.1931V12.0071H16.336C16.6525 12.0071 16.8722 12.1307 16.8722 12.4379C16.8722 12.7419 16.6626 12.902 16.3258 12.902ZM22.2602 11.2871H25.1858V12.0139H23.1332V12.6528H25.1356V13.3699H23.1332V14.0691L25.1857 14.0723V14.8015H22.2602L22.2602 11.2871ZM21.1355 13.1683C21.3306 13.2373 21.4901 13.3609 21.5648 13.4633C21.6886 13.6349 21.7065 13.795 21.7101 14.1047V14.8015H20.83V14.3618C20.83 14.1503 20.8512 13.8373 20.6883 13.6739C20.5603 13.548 20.365 13.5179 20.0453 13.5179H19.1085V14.8015H18.2277V11.2871H20.2514C20.6952 11.2871 21.0184 11.3059 21.3061 11.453C21.5827 11.6131 21.7567 11.8325 21.7567 12.2334C21.7567 12.7943 21.3662 13.0805 21.1355 13.1683ZM20.6401 12.724C20.5228 12.7907 20.3778 12.7964 20.2074 12.7964H19.1425V12.0071H20.2218C20.3778 12.0071 20.534 12.0103 20.6401 12.0706C20.7537 12.1275 20.8216 12.2365 20.8216 12.3867C20.8216 12.5371 20.7536 12.6582 20.6401 12.724ZM28.5529 12.9479C28.7237 13.117 28.815 13.3307 28.815 13.6924C28.815 14.4484 28.3222 14.8013 27.438 14.8013H25.7308V14.0477H27.4312C27.5975 14.0477 27.7154 14.0267 27.7892 13.9607C27.8496 13.9064 27.8928 13.8274 27.8928 13.7315C27.8928 13.6291 27.846 13.5479 27.7858 13.4991C27.7188 13.4455 27.6264 13.4211 27.4737 13.4211C26.654 13.3943 25.6274 13.4455 25.6274 12.3335C25.6274 11.8237 25.9616 11.2871 26.8806 11.2871H28.6379V12.0351H27.03C26.8706 12.0351 26.767 12.0409 26.6788 12.0986C26.5828 12.1555 26.5472 12.24 26.5472 12.3514C26.5472 12.4839 26.6287 12.5742 26.739 12.6132C26.8314 12.644 26.9308 12.653 27.08 12.653L27.5519 12.6653C28.0277 12.6763 28.3544 12.7552 28.5529 12.9479ZM32.0311 12.0071H30.4336C30.2741 12.0071 30.168 12.0128 30.0789 12.0705C29.9864 12.1275 29.9508 12.2119 29.9508 12.3234C29.9508 12.456 30.0288 12.5461 30.1424 12.5852C30.2349 12.616 30.3342 12.625 30.4802 12.625L30.9553 12.6372C31.4346 12.6485 31.7546 12.7275 31.9497 12.9201C31.9854 12.9469 32.0066 12.9769 32.031 13.0071V12.0071H32.0311Z" fill="white"/>
</g>
<defs>
<clipPath id="clip0_108_4177">
<rect width="31.2" height="20" fill="white" transform="translate(0.841675)"/>
</clipPath>
</defs>
</svg>
