<svg width="27" height="20" viewBox="0 0 27 20" fill="none" xmlns="http://www.w3.org/2000/svg">
<g clip-path="url(#clip0_108_4175)">
<path d="M6.16749 18.8891C6.16749 18.5371 6.40672 18.2479 6.7977 18.2479C7.17135 18.2479 7.42348 18.5246 7.42348 18.8891C7.42348 19.2535 7.17135 19.5302 6.7977 19.5302C6.40672 19.5302 6.16749 19.241 6.16749 18.8891ZM7.8494 18.8891V17.8874H7.39766V18.1314C7.25438 17.9511 7.03705 17.838 6.7415 17.838C6.15927 17.838 5.70234 18.2782 5.70234 18.8895C5.70234 19.5009 6.15901 19.9411 6.7415 19.9411C7.03693 19.9411 7.25438 19.8279 7.39766 19.6477V19.8908H7.84889V18.8891H7.8494ZM23.1131 18.8891C23.1131 18.5371 23.3523 18.2479 23.7434 18.2479C24.1175 18.2479 24.3692 18.5246 24.3692 18.8891C24.3692 19.2535 24.1175 19.5302 23.7434 19.5302C23.3525 19.5302 23.1131 19.241 23.1131 18.8891ZM24.7955 18.8891V17.0834H24.3434V18.1314C24.2001 17.9511 23.9828 17.838 23.6872 17.838C23.105 17.838 22.6481 18.2782 22.6481 18.8895C22.6481 19.5009 23.1048 19.9411 23.6872 19.9411C23.9828 19.9411 24.2001 19.8279 24.3434 19.6477V19.8908H24.7955V18.8891ZM13.4561 18.2273C13.7472 18.2273 13.9341 18.4032 13.9819 18.713H12.904C12.9522 18.4238 13.1343 18.2273 13.4562 18.2273H13.4561ZM13.4652 17.8369C12.8564 17.8369 12.4305 18.2639 12.4305 18.8884C12.4305 19.5252 12.8735 19.94 13.4954 19.94C13.8083 19.94 14.0949 19.8647 14.347 19.6594L14.1257 19.3367C13.9515 19.4709 13.7297 19.5462 13.5213 19.5462C13.2301 19.5462 12.9651 19.4162 12.8999 19.0557H14.4425C14.4469 19.0015 14.4515 18.9469 14.4515 18.8883C14.4469 18.264 14.0464 17.8368 13.4649 17.8368L13.4652 17.8369ZM18.919 18.8883C18.919 18.5363 19.1582 18.2472 19.5492 18.2472C19.9228 18.2472 20.175 18.5239 20.175 18.8883C20.175 19.2528 19.9228 19.5295 19.5492 19.5295C19.1582 19.5295 18.9189 19.2403 18.9189 18.8883H18.919ZM20.6008 18.8883V17.8874H20.1493V18.1314C20.0055 17.9511 19.7887 17.838 19.4931 17.838C18.9109 17.838 18.4539 18.2782 18.4539 18.8895C18.4539 19.5009 18.9106 19.9411 19.4931 19.9411C19.7887 19.9411 20.0055 19.8279 20.1493 19.6477V19.8908H20.6009V18.8891L20.6008 18.8883ZM16.3679 18.8883C16.3679 19.4958 16.8066 19.9399 17.4762 19.9399C17.7891 19.9399 17.9975 19.8728 18.223 19.7011L18.006 19.3491C17.8364 19.4666 17.6583 19.5295 17.4617 19.5295C17.1011 19.5252 16.836 19.2739 16.836 18.8883C16.836 18.5028 17.1011 18.2516 17.4617 18.2472C17.6578 18.2472 17.8359 18.31 18.006 18.4275L18.223 18.0755C17.9971 17.9039 17.7887 17.8368 17.4762 17.8368C16.8066 17.8368 16.3679 18.2807 16.3679 18.8883ZM22.1915 17.8368C21.9309 17.8368 21.7612 17.9542 21.6438 18.1302V17.8874H21.1962V19.8897H21.6484V18.7673C21.6484 18.4359 21.7961 18.2518 22.0914 18.2518C22.1881 18.2505 22.2841 18.2676 22.3739 18.3022L22.5131 17.8918C22.4132 17.8538 22.2828 17.8371 22.1913 17.8371L22.1915 17.8368ZM10.0828 18.0466C9.86546 17.9085 9.56598 17.8371 9.23563 17.8371C8.70934 17.8371 8.3705 18.0803 8.3705 18.4781C8.3705 18.8046 8.62276 19.0061 9.08728 19.0689L9.30069 19.0982C9.54839 19.1317 9.66534 19.1946 9.66534 19.3077C9.66534 19.4625 9.5008 19.5508 9.19183 19.5508C8.87894 19.5508 8.65314 19.4544 8.50087 19.3413L8.28861 19.6809C8.53631 19.8568 8.8492 19.9407 9.18804 19.9407C9.78799 19.9407 10.1357 19.6684 10.1357 19.2872C10.1357 18.9352 9.86204 18.7511 9.40992 18.6882L9.19702 18.6585C9.00147 18.6341 8.84477 18.5961 8.84477 18.4619C8.84477 18.3155 8.99248 18.2274 9.24031 18.2274C9.50548 18.2274 9.76217 18.3238 9.88799 18.3991L10.0835 18.0471L10.0828 18.0466ZM15.9116 17.8375C15.651 17.8375 15.4813 17.955 15.3644 18.1309V17.8874H14.9167V19.8897H15.3685V18.7673C15.3685 18.4359 15.5162 18.2518 15.8115 18.2518C15.9082 18.2505 16.0042 18.2676 16.094 18.3022L16.2332 17.8918C16.1332 17.8538 16.0029 17.8371 15.9113 17.8371L15.9116 17.8375ZM12.0567 17.8874H11.318V17.2799H10.8613V17.8874H10.44V18.2854H10.8613V19.1988C10.8613 19.6634 11.0484 19.9401 11.5828 19.9401C11.7789 19.9401 12.0047 19.8816 12.1479 19.7853L12.0175 19.4125C11.8827 19.4877 11.7349 19.5257 11.6175 19.5257C11.3917 19.5257 11.318 19.3915 11.318 19.1905V18.2857H12.0567V17.8874ZM5.30287 19.8902V18.6336C5.30287 18.1603 4.98998 17.8419 4.48559 17.8376C4.22042 17.8333 3.9469 17.9129 3.75539 18.1939C3.61211 17.9718 3.3863 17.8376 3.06886 17.8376C2.84697 17.8376 2.63015 17.9004 2.46042 18.1349V17.8874H2.0083V19.8897H2.46396V18.7795C2.46396 18.4319 2.66395 18.2472 2.97279 18.2472C3.27277 18.2472 3.42453 18.4357 3.42453 18.7751V19.8895H3.8812V18.7792C3.8812 18.4317 4.08967 18.2469 4.38952 18.2469C4.69798 18.2469 4.84518 18.4354 4.84518 18.7749V19.8893L5.30287 19.8902Z" fill="#231F20"/>
<path d="M16.5915 14.1666H9.92493V1.66663H16.5916L16.5915 14.1666Z" fill="#FF5F00"/>
<path d="M10.6257 7.91667C10.6257 5.39159 11.8181 3.14224 13.6748 1.69266C12.2694 0.593783 10.5311 -0.00261366 8.74124 8.61048e-06C4.33228 8.61048e-06 0.758301 3.54436 0.758301 7.91667C0.758301 12.289 4.33228 15.8333 8.74124 15.8333C10.5311 15.836 12.2695 15.2396 13.675 14.1407C11.8184 12.6914 10.6257 10.4419 10.6257 7.91667Z" fill="#EB001B"/>
<path d="M26.175 7.91667C26.175 12.289 22.6012 15.8333 18.1924 15.8333C16.4025 15.8359 14.664 15.2395 13.2583 14.1407C15.1155 12.6911 16.3078 10.4419 16.3078 7.91667C16.3078 5.39146 15.1155 3.14224 13.2583 1.69266C14.6639 0.593816 16.4024 -0.0025677 18.1923 8.31014e-06C22.601 8.31014e-06 26.1748 3.54436 26.1748 7.91667" fill="#F79E1B"/>
</g>
<defs>
<clipPath id="clip0_108_4175">
<rect width="25.8333" height="20" fill="white" transform="translate(0.758301)"/>
</clipPath>
</defs>
</svg>
