<svg width="276" height="194" viewBox="0 0 276 194" fill="none" xmlns="http://www.w3.org/2000/svg">
<g clip-path="url(#clip0_135_5885)">
<path d="M224.987 128.419C225.296 128.019 225.513 127.555 225.623 127.062C225.733 126.568 225.734 126.057 225.625 125.563C225.516 125.07 225.299 124.606 224.992 124.204C224.684 123.803 224.291 123.474 223.842 123.241L224.527 115.367L219.838 113.785L219.028 124.918C218.686 125.697 218.642 126.575 218.904 127.385C219.166 128.194 219.716 128.88 220.45 129.312C221.185 129.743 222.052 129.891 222.888 129.726C223.724 129.562 224.47 129.097 224.986 128.42L224.987 128.419Z" fill="#D4C2A8"/>
<path d="M248.379 189.634H244.16L242.153 173.369H248.382L248.379 189.634Z" fill="#D4C2A8"/>
<path d="M241.145 188.429H249.285V193.549H236.021C236.021 192.191 236.56 190.889 237.522 189.928C238.483 188.968 239.786 188.429 241.145 188.429Z" fill="#4B1979"/>
<path d="M238.801 178.842L234.703 179.848L228.868 164.533L234.917 163.048L238.801 178.842Z" fill="#D4C2A8"/>
<path d="M231.545 179.251L239.448 177.307L240.673 182.279L227.793 185.446C227.468 184.128 227.681 182.734 228.385 181.572C229.088 180.411 230.225 179.575 231.545 179.251Z" fill="#4B1979"/>
<path d="M243.441 184.447C243.055 184.448 242.683 184.306 242.397 184.049C242.11 183.791 241.93 183.436 241.89 183.053L237.035 137.854L232.809 151.676L238.794 173.265C238.897 173.635 238.86 174.03 238.689 174.374C238.519 174.718 238.227 174.987 237.87 175.129L233.111 177.031C232.915 177.109 232.705 177.147 232.494 177.142C232.283 177.137 232.076 177.089 231.884 177.002C231.692 176.915 231.519 176.789 231.377 176.633C231.235 176.478 231.126 176.295 231.057 176.096L223.721 155.07C222.918 152.774 222.563 150.346 222.675 147.917L223.699 125.226L250.664 126.366L250.243 182.506C250.238 182.897 250.087 183.272 249.82 183.558C249.553 183.843 249.189 184.019 248.799 184.05L243.562 184.445C243.521 184.446 243.481 184.447 243.441 184.447Z" fill="#4B1979"/>
<path d="M238.975 75.0088C243.983 75.0088 248.042 70.9532 248.042 65.9502C248.042 60.9473 243.983 56.8916 238.975 56.8916C233.967 56.8916 229.908 60.9473 229.908 65.9502C229.908 70.9532 233.967 75.0088 238.975 75.0088Z" fill="#D4C2A8"/>
<path d="M245.643 127.843C243.255 127.843 240.29 127.648 237.22 127.446C233.026 127.17 228.69 126.885 225.452 127.072C225.015 127.116 224.574 127.046 224.171 126.871C223.769 126.696 223.418 126.421 223.152 126.071C219.815 121.803 224.961 105.156 225.182 104.45L229.37 85.8363L229.55 85.8768L229.37 85.8363C230.293 81.7423 233.236 78.7224 237.053 77.9553C240.627 77.2383 244.084 78.6675 246.301 81.7818C246.418 81.947 246.536 82.1166 246.653 82.2904C253.871 92.9704 249.788 119.504 249.515 121.215C249.896 121.672 251.958 124.252 251.391 126.044C251.161 126.773 250.535 127.27 249.53 127.519C248.25 127.772 246.946 127.88 245.642 127.842L245.643 127.843Z" fill="#A06ECE"/>
<path d="M225.599 127.851C224.777 127.851 223.669 127.548 222.176 126.929C221.534 126.662 219.58 125.85 221.952 105.142C223.117 94.9695 224.786 84.8682 224.803 84.7675L224.819 84.6701L224.909 84.6295C224.952 84.61 229.214 82.6582 229.955 80.1498C229.98 80.063 230.009 79.9788 230.042 79.8972C230.246 79.3396 230.657 78.8823 231.191 78.6206C231.724 78.3589 232.338 78.3131 232.904 78.4927C233.503 78.6356 234.024 79.0005 234.363 79.5134C234.702 80.0263 234.832 80.6487 234.729 81.2545C234.471 82.8905 233.974 84.48 233.255 85.9724C231.25 90.1069 229.891 101.068 229.877 101.178C229.801 102.114 227.981 124.293 227.63 125.976C227.507 126.563 227.282 127.283 226.621 127.632C226.304 127.788 225.953 127.864 225.599 127.853L225.599 127.851Z" fill="#4B1979"/>
<path d="M235.504 127.001C235.338 127.001 235.177 126.946 235.046 126.844C232.379 124.819 236.696 100.27 239.255 91.8002C239.767 90.1036 240.224 88.6516 240.612 87.4828C241.319 85.3855 241.812 83.2223 242.084 81.0262C242.225 79.8364 242.531 79.157 243.021 78.9486C243.361 78.8037 243.759 78.9021 244.21 79.2411C246.575 79.1245 248.873 80.0894 251.002 81.1519L252.919 82.1072L255.07 120.151C255.009 122.579 250.219 124.293 248.13 124.402C244.774 124.578 238.749 125.124 236.095 126.803C235.921 126.924 235.716 126.992 235.504 127L235.504 127.001Z" fill="#4B1979"/>
<path d="M223.522 119.863C223.49 119.863 223.459 119.863 223.426 119.86L219.082 119.593C218.866 119.58 218.655 119.522 218.462 119.423C218.269 119.323 218.1 119.185 217.963 119.017C217.827 118.848 217.727 118.654 217.671 118.445C217.614 118.236 217.601 118.017 217.634 117.803L219.6 104.792L223.3 86.5349C223.391 86.0852 223.576 85.6597 223.842 85.2859C224.109 84.9121 224.451 84.5984 224.846 84.3651C225.242 84.1318 225.682 83.9841 226.138 83.9316C226.594 83.8792 227.056 83.9231 227.495 84.0605C228.244 84.2993 228.883 84.7978 229.296 85.4659C229.71 86.1341 229.871 86.9279 229.75 87.7041L226.81 105.998L225.069 118.518C225.015 118.89 224.83 119.231 224.546 119.478C224.262 119.725 223.898 119.862 223.522 119.863H223.522Z" fill="#4B1979"/>
<path d="M238.363 105.62C238.628 105.19 238.984 104.822 239.407 104.544C239.829 104.266 240.308 104.083 240.808 104.01C241.309 103.936 241.82 103.973 242.304 104.118C242.789 104.263 243.236 104.512 243.614 104.849L250.737 101.411L253.884 105.226L243.757 109.939C243.149 110.536 242.344 110.89 241.493 110.933C240.642 110.976 239.805 110.706 239.14 110.173C238.475 109.641 238.029 108.884 237.885 108.044C237.742 107.205 237.912 106.343 238.363 105.62Z" fill="#D4C2A8"/>
<path d="M248.258 109.312C247.908 109.312 247.567 109.194 247.292 108.977C247.016 108.76 246.822 108.457 246.74 108.117L245.706 103.82C245.627 103.497 245.654 103.157 245.783 102.85C245.912 102.543 246.136 102.286 246.422 102.116L252.661 98.3853L249.472 86.718C249.196 85.7189 249.322 84.6516 249.824 83.7445C250.326 82.8374 251.163 82.1626 252.157 81.8647C253.151 81.5667 254.222 81.6692 255.141 82.1502C256.06 82.6313 256.753 83.4526 257.074 84.4384L260.595 95.1803C261.028 96.4897 261.031 97.9028 260.605 99.2143C260.179 100.526 259.345 101.667 258.225 102.473L249.173 109.016C248.907 109.208 248.587 109.312 248.258 109.312Z" fill="#4B1979"/>
<path d="M180.848 0H6.15778C4.52523 0.00195212 2.96011 0.65073 1.80573 1.80402C0.651343 2.95731 0.00195398 4.52094 0 6.15194V24.9323C0.00195398 26.5633 0.651343 28.127 1.80573 29.2802C2.96011 30.4335 4.52523 31.0823 6.15778 31.0843H180.848C182.48 31.0823 184.045 30.4335 185.2 29.2802C186.354 28.127 187.003 26.5633 187.005 24.9323V6.15194C187.003 4.52094 186.354 2.95731 185.2 1.80402C184.045 0.65073 182.48 0.00195212 180.848 0ZM186.357 24.9323C186.355 26.3915 185.774 27.7903 184.741 28.8221C183.708 29.8539 182.308 30.4345 180.848 30.4366H6.15778C4.69722 30.4345 3.2971 29.8539 2.26434 28.8221C1.23157 27.7903 0.650412 26.3915 0.648264 24.9323V6.15194C0.650412 4.69277 1.23157 3.29398 2.26434 2.26219C3.2971 1.2304 4.69722 0.649795 6.15778 0.647649H180.848C182.308 0.649795 183.708 1.2304 184.741 2.26219C185.774 3.29398 186.355 4.69277 186.357 6.15194V24.9323Z" fill="#3F3D56"/>
<path d="M180.848 75.4433H6.15778C4.52523 75.4413 2.96011 74.7925 1.80573 73.6392C0.651343 72.486 0.00195398 70.9223 0 69.2913V50.5113C0.00195398 48.8803 0.651343 47.3167 1.80573 46.1634C2.96011 45.0101 4.52523 44.3613 6.15778 44.3594H180.848C182.48 44.3613 184.045 45.0101 185.2 46.1634C186.354 47.3167 187.003 48.8803 187.005 50.5113V69.2913C187.003 70.9223 186.354 72.486 185.2 73.6392C184.045 74.7925 182.48 75.4413 180.848 75.4433ZM6.15778 45.007C4.69707 45.0087 3.29667 45.5891 2.2638 46.621C1.23093 47.6529 0.649925 49.052 0.648264 50.5113V69.2913C0.649632 70.7508 1.2305 72.1502 2.26341 73.1823C3.29631 74.2145 4.69688 74.7951 6.15778 74.7967H180.848C182.308 74.7952 183.709 74.2148 184.742 73.1829C185.775 72.1509 186.356 70.7518 186.357 69.2924V50.5113C186.356 49.052 185.775 47.6529 184.742 46.621C183.709 45.5891 182.309 45.0087 180.848 45.007H6.15778Z" fill="#CCCCCC"/>
<path d="M180.848 119.803H6.15778C4.52523 119.801 2.96011 119.152 1.80573 117.999C0.651343 116.845 0.00195398 115.282 0 113.651V94.8707C0.00195398 93.2397 0.651343 91.6761 1.80573 90.5228C2.96011 89.3695 4.52523 88.7207 6.15778 88.7188H180.848C182.48 88.7207 184.045 89.3695 185.2 90.5228C186.354 91.6761 187.003 93.2397 187.005 94.8707V113.651C187.003 115.282 186.354 116.845 185.2 117.999C184.045 119.152 182.48 119.801 180.848 119.803ZM6.15778 89.3649C4.69707 89.3666 3.29667 89.947 2.2638 90.9789C1.23093 92.0108 0.649925 93.4099 0.648264 94.8692V113.649C0.649827 115.109 1.23079 116.508 2.26367 117.54C3.29656 118.572 4.69701 119.152 6.15778 119.154H180.848C182.308 119.152 183.709 118.572 184.742 117.54C185.775 116.508 186.356 115.109 186.357 113.65V94.8707C186.356 93.411 185.775 92.0115 184.742 90.9793C183.709 89.9471 182.309 89.3665 180.848 89.3649H6.15778Z" fill="#CCCCCC"/>
<path d="M29.7622 26.2502C27.6424 26.2502 25.5703 25.6222 23.8077 24.4456C22.0452 23.2691 20.6715 21.5968 19.8603 19.6402C19.0491 17.6837 18.8368 15.5307 19.2504 13.4536C19.6639 11.3766 20.6847 9.46864 22.1836 7.97116C23.6825 6.47367 25.5922 5.45387 27.6713 5.04071C29.7503 4.62755 31.9053 4.8396 33.8637 5.65003C35.8222 6.46047 37.496 7.83289 38.6737 9.59375C39.8514 11.3546 40.48 13.4248 40.48 15.5426C40.48 18.3824 39.3508 21.1059 37.3409 23.114C35.3309 25.1221 32.6048 26.2502 29.7622 26.2502Z" fill="#A06ECE"/>
<path d="M165.024 24.2843H50.6173C49.9296 24.2843 49.2701 24.0114 48.7839 23.5256C48.2976 23.0398 48.0244 22.381 48.0244 21.6939C48.0244 21.0069 48.2976 20.348 48.7839 19.8622C49.2701 19.3764 49.9296 19.1035 50.6173 19.1035H165.024C165.711 19.1035 166.371 19.3764 166.857 19.8622C167.343 20.348 167.616 21.0069 167.616 21.6939C167.616 22.381 167.343 23.0398 166.857 23.5256C166.371 24.0114 165.711 24.2843 165.024 24.2843Z" fill="#CCCCCC"/>
<path d="M127.75 13.2756H50.6144C49.9267 13.2756 49.2672 13.0026 48.7809 12.5168C48.2947 12.031 48.0215 11.3722 48.0215 10.6851C48.0215 9.99812 48.2947 9.33924 48.7809 8.85344C49.2672 8.36764 49.9267 8.09473 50.6144 8.09473H127.75C128.437 8.09473 129.097 8.36764 129.583 8.85344C130.069 9.33924 130.343 9.99812 130.343 10.6851C130.343 11.3722 130.069 12.031 129.583 12.5168C129.097 13.0026 128.437 13.2756 127.75 13.2756Z" fill="#CCCCCC"/>
<path d="M29.7622 70.6086C27.6424 70.6086 25.5703 69.9806 23.8077 68.804C22.0452 67.6275 20.6715 65.9552 19.8603 63.9986C19.0491 62.0421 18.8368 59.8891 19.2504 57.812C19.6639 55.735 20.6847 53.827 22.1836 52.3296C23.6825 50.8321 25.5922 49.8123 27.6713 49.3991C29.7503 48.986 31.9053 49.198 33.8637 50.0084C35.8222 50.8189 37.496 52.1913 38.6737 53.9521C39.8514 55.713 40.48 57.7832 40.48 59.901C40.48 62.7408 39.3508 65.4643 37.3409 67.4724C35.3309 69.4805 32.6048 70.6086 29.7622 70.6086Z" fill="#E6E6E6"/>
<path d="M165.024 68.6437H50.6173C49.9296 68.6437 49.2701 68.3708 48.7839 67.885C48.2976 67.3992 48.0244 66.7403 48.0244 66.0533C48.0244 65.3663 48.2976 64.7074 48.7839 64.2216C49.2701 63.7358 49.9296 63.4629 50.6173 63.4629H165.024C165.711 63.4629 166.371 63.7358 166.857 64.2216C167.343 64.7074 167.616 65.3663 167.616 66.0533C167.616 66.7403 167.343 67.3992 166.857 67.885C166.371 68.3708 165.711 68.6437 165.024 68.6437Z" fill="#E6E6E6"/>
<path d="M127.75 57.6349H50.6144C49.9267 57.6349 49.2672 57.362 48.7809 56.8762C48.2947 56.3904 48.0215 55.7315 48.0215 55.0445C48.0215 54.3575 48.2947 53.6986 48.7809 53.2128C49.2672 52.727 49.9267 52.4541 50.6144 52.4541H127.75C128.437 52.4541 129.097 52.727 129.583 53.2128C130.069 53.6986 130.343 54.3575 130.343 55.0445C130.343 55.7315 130.069 56.3904 129.583 56.8762C129.097 57.362 128.437 57.6349 127.75 57.6349Z" fill="#E6E6E6"/>
<path d="M29.7622 114.969C27.6424 114.969 25.5703 114.341 23.8077 113.164C22.0452 111.988 20.6715 110.316 19.8603 108.359C19.0491 106.402 18.8368 104.249 19.2504 102.172C19.6639 100.095 20.6847 98.1874 22.1836 96.6899C23.6825 95.1924 25.5922 94.1726 27.6713 93.7595C29.7503 93.3463 31.9053 93.5584 33.8637 94.3688C35.8222 95.1792 37.496 96.5516 38.6737 98.3125C39.8514 100.073 40.48 102.144 40.48 104.261C40.48 107.101 39.3508 109.825 37.3409 111.833C35.3309 113.841 32.6048 114.969 29.7622 114.969Z" fill="#E6E6E6"/>
<path d="M165.024 113.003H50.6173C49.9296 113.003 49.2701 112.73 48.7839 112.244C48.2976 111.759 48.0244 111.1 48.0244 110.413C48.0244 109.726 48.2976 109.067 48.7839 108.581C49.2701 108.095 49.9296 107.822 50.6173 107.822H165.024C165.711 107.822 166.371 108.095 166.857 108.581C167.343 109.067 167.616 109.726 167.616 110.413C167.616 111.1 167.343 111.759 166.857 112.244C166.371 112.73 165.711 113.003 165.024 113.003Z" fill="#E6E6E6"/>
<path d="M127.75 101.994H50.6144C49.9267 101.994 49.2672 101.721 48.7809 101.236C48.2947 100.75 48.0215 100.091 48.0215 99.4039C48.0215 98.7169 48.2947 98.058 48.7809 97.5722C49.2672 97.0864 49.9267 96.8135 50.6144 96.8135H127.75C128.437 96.8135 129.097 97.0864 129.583 97.5722C130.069 98.058 130.343 98.7169 130.343 99.4039C130.343 100.091 130.069 100.75 129.583 101.236C129.097 101.721 128.437 101.994 127.75 101.994Z" fill="#E6E6E6"/>
<path d="M29.2153 19.3085C28.9491 19.3091 28.6899 19.2232 28.4769 19.0636L28.4636 19.0536L25.6856 16.9307C25.5569 16.8322 25.449 16.7093 25.3678 16.569C25.2867 16.4288 25.234 16.274 25.2128 16.1134C25.1916 15.9529 25.2022 15.7897 25.2441 15.6332C25.2859 15.4767 25.3583 15.33 25.4569 15.2015C25.5555 15.073 25.6786 14.9651 25.8189 14.884C25.9593 14.803 26.1143 14.7503 26.275 14.7291C26.4357 14.7079 26.599 14.7185 26.7557 14.7604C26.9123 14.8022 27.0591 14.8745 27.1878 14.973L28.9871 16.3517L33.2389 10.8098C33.438 10.5504 33.7321 10.3806 34.0565 10.3378C34.3809 10.295 34.7091 10.3826 34.9688 10.5815L34.9426 10.6183L34.9695 10.5815C35.2289 10.7807 35.3986 11.0746 35.4413 11.3987C35.4841 11.7227 35.3965 12.0505 35.1977 12.3101L30.1965 18.8257C30.0806 18.9756 29.9318 19.0968 29.7615 19.1799C29.5912 19.263 29.4041 19.3059 29.2145 19.3052L29.2153 19.3085Z" fill="white"/>
<path d="M275.631 194H202.535C202.437 194 202.343 193.961 202.274 193.892C202.204 193.823 202.166 193.729 202.166 193.632C202.166 193.534 202.204 193.44 202.274 193.371C202.343 193.302 202.437 193.263 202.535 193.263H275.631C275.729 193.263 275.822 193.302 275.892 193.371C275.961 193.44 276 193.534 276 193.632C276 193.729 275.961 193.823 275.892 193.892C275.822 193.961 275.729 194 275.631 194Z" fill="#CCCCCC"/>
<path d="M242.308 68.3649C242.308 68.3649 241.205 62.2697 238.694 62.998C236.183 63.7262 229.721 64.4713 229.709 61.6008C229.697 58.7303 235.792 56.193 239.385 56.5364C242.978 56.8798 249.088 57.9304 248.752 63.3141C248.482 66.7047 247.433 69.9876 245.686 72.9071L242.308 68.3649Z" fill="#4B1979"/>
</g>
<defs>
<clipPath id="clip0_135_5885">
<rect width="276" height="194" fill="white"/>
</clipPath>
</defs>
</svg>
