<svg width="32" height="20" viewBox="0 0 32 20" fill="none" xmlns="http://www.w3.org/2000/svg">
<path d="M6.77682 6.77397C6.44086 6.54301 6.00246 6.42725 5.46162 6.42725H3.36778C3.20198 6.42725 3.11038 6.51017 3.09298 6.67585L2.24242 12.015C2.23358 12.0675 2.2467 12.1154 2.28166 12.159C2.31642 12.2027 2.36014 12.2244 2.4125 12.2244H3.40706C3.5815 12.2244 3.67738 12.1417 3.69498 11.9758L3.9305 10.5364C3.9391 10.4666 3.96978 10.4099 4.02214 10.3662C4.07446 10.3226 4.1399 10.2941 4.21842 10.2811C4.29694 10.2681 4.37098 10.2616 4.4409 10.2616C4.51062 10.2616 4.59346 10.266 4.68958 10.2747C4.78546 10.2834 4.84658 10.2876 4.87278 10.2876C5.62302 10.2876 6.2119 10.0762 6.63946 9.65297C7.06682 9.22993 7.28074 8.64329 7.28074 7.89281C7.28074 7.37809 7.11262 7.00517 6.77682 6.77385V6.77397ZM5.69726 8.37717C5.6535 8.68257 5.54022 8.88313 5.35702 8.97913C5.17378 9.07525 4.91206 9.12309 4.57186 9.12309L4.13998 9.13613L4.3625 7.73585C4.37986 7.63997 4.43654 7.59197 4.53258 7.59197H4.7813C5.1301 7.59197 5.38326 7.64225 5.5403 7.74241C5.69726 7.84281 5.74962 8.05445 5.69726 8.37717Z" fill="#003087"/>
<path d="M28.8732 6.42725H27.9049C27.8087 6.42725 27.752 6.47525 27.7347 6.57129L26.8841 12.0153L26.871 12.0414C26.871 12.0853 26.8884 12.1265 26.9234 12.1658C26.9581 12.205 27.0019 12.2246 27.0542 12.2246H27.9181C28.0835 12.2246 28.1752 12.1419 28.1929 11.976L29.0435 6.62365V6.61065C29.0434 6.48845 28.9865 6.42741 28.8732 6.42741V6.42725Z" fill="#009CDE"/>
<path d="M17.174 8.5344C17.174 8.49088 17.1565 8.44936 17.1218 8.4102C17.0868 8.37096 17.0475 8.3512 17.004 8.3512H15.9964C15.9002 8.3512 15.8217 8.39504 15.7607 8.48204L14.3736 10.5236L13.7978 8.56064C13.754 8.42116 13.6581 8.3512 13.5099 8.3512H12.5283C12.4846 8.3512 12.4453 8.37088 12.4106 8.4102C12.3756 8.44936 12.3583 8.49096 12.3583 8.5344C12.3583 8.55196 12.4434 8.80924 12.6134 9.30652C12.7835 9.80396 12.9667 10.3405 13.163 10.9164C13.3594 11.4921 13.4618 11.7976 13.4706 11.8322C12.7551 12.8095 12.3976 13.3329 12.3976 13.4026C12.3976 13.5161 12.4542 13.5728 12.5677 13.5728H13.5753C13.6712 13.5728 13.7497 13.5292 13.8109 13.442L17.148 8.62596C17.1653 8.60868 17.174 8.57828 17.174 8.53436V8.5344Z" fill="#003087"/>
<path d="M26.5572 8.35124H25.5626C25.4403 8.35124 25.3664 8.49524 25.3402 8.7832C25.1131 8.43432 24.699 8.25964 24.0969 8.25964C23.4688 8.25964 22.9343 8.49524 22.4939 8.96636C22.0532 9.43748 21.833 9.99164 21.833 10.6284C21.833 11.1433 21.9835 11.5533 22.2844 11.8585C22.5854 12.1641 22.9888 12.3166 23.495 12.3166C23.748 12.3166 24.0054 12.2641 24.2671 12.1595C24.5288 12.0548 24.7336 11.9153 24.8822 11.7408C24.8822 11.7495 24.8733 11.7886 24.8561 11.8584C24.8384 11.9283 24.8298 11.9808 24.8298 12.0154C24.8298 12.1552 24.8864 12.2248 25 12.2248H25.903C26.0686 12.2248 26.1647 12.1421 26.1908 11.9762L26.7274 8.5606C26.736 8.5082 26.723 8.46032 26.6881 8.41664C26.653 8.37312 26.6095 8.35124 26.5572 8.35124ZM24.8494 10.9294C24.627 11.1475 24.3586 11.2565 24.0446 11.2565C23.7915 11.2565 23.5866 11.1868 23.4295 11.0472C23.2724 10.9079 23.1939 10.7159 23.1939 10.4714C23.1939 10.1488 23.303 9.87592 23.5212 9.65348C23.739 9.431 24.0097 9.3198 24.3325 9.3198C24.5766 9.3198 24.7794 9.39176 24.941 9.53564C25.1022 9.67964 25.1832 9.87812 25.1832 10.1312C25.1831 10.4452 25.0719 10.7114 24.8494 10.9294Z" fill="#009CDE"/>
<path d="M11.6909 8.35124H10.6963C10.574 8.35124 10.5 8.49524 10.4738 8.7832C10.2382 8.43432 9.82375 8.25964 9.23051 8.25964C8.60235 8.25964 8.06791 8.49524 7.62739 8.96636C7.18675 9.43748 6.96655 9.99164 6.96655 10.6284C6.96655 11.1433 7.11707 11.5533 7.41807 11.8585C7.71907 12.1641 8.12247 12.3166 8.62855 12.3166C8.87271 12.3166 9.12587 12.2641 9.38755 12.1595C9.64927 12.0548 9.85867 11.9153 10.0157 11.7408C9.98071 11.8454 9.96335 11.937 9.96335 12.0154C9.96335 12.1552 10.02 12.2248 10.1335 12.2248H11.0364C11.2021 12.2248 11.2982 12.1421 11.3244 11.9762L11.8609 8.5606C11.8695 8.5082 11.8564 8.46032 11.8216 8.41664C11.7867 8.37312 11.7432 8.35124 11.6909 8.35124ZM9.98307 10.9359C9.76055 11.1499 9.48779 11.2565 9.16519 11.2565C8.91203 11.2565 8.70919 11.1868 8.55663 11.0472C8.40387 10.9079 8.32759 10.7159 8.32759 10.4714C8.32759 10.1488 8.43659 9.87592 8.65479 9.65348C8.87275 9.431 9.14323 9.31976 9.46615 9.31976C9.71031 9.31976 9.91315 9.39176 10.0747 9.53564C10.236 9.67964 10.3168 9.87812 10.3168 10.1312C10.3168 10.454 10.2056 10.7224 9.98307 10.9359Z" fill="#003087"/>
<path d="M21.6432 6.77397C21.3073 6.54301 20.869 6.42725 20.3281 6.42725H18.2473C18.0727 6.42725 17.9767 6.51017 17.9594 6.67585L17.1087 12.015C17.0999 12.0675 17.113 12.1154 17.148 12.159C17.1826 12.2027 17.2265 12.2244 17.2788 12.2244H18.3519C18.4565 12.2244 18.5263 12.1678 18.5613 12.0544L18.7969 10.5364C18.8055 10.4666 18.8361 10.4099 18.8885 10.3662C18.9409 10.3226 19.0062 10.2941 19.0848 10.2811C19.1633 10.2681 19.2373 10.2616 19.3073 10.2616C19.377 10.2616 19.4598 10.266 19.5559 10.2747C19.6518 10.2834 19.7131 10.2876 19.7391 10.2876C20.4895 10.2876 21.0782 10.0762 21.5058 9.65297C21.9333 9.22993 22.147 8.64329 22.147 7.89281C22.1471 7.37809 21.979 7.00513 21.6432 6.77385V6.77397ZM20.3019 8.92673C20.1099 9.05757 19.822 9.12297 19.4382 9.12297L19.0194 9.13609L19.2419 7.73577C19.2591 7.63993 19.3159 7.59185 19.4119 7.59185H19.6474C19.8394 7.59185 19.992 7.60061 20.1056 7.61801C20.2188 7.63553 20.3281 7.68997 20.4327 7.78153C20.5375 7.87317 20.5898 8.00629 20.5898 8.18069C20.5898 8.54725 20.4937 8.79577 20.3019 8.92673Z" fill="#009CDE"/>
</svg>
