<svg width="27" height="20" viewBox="0 0 27 20" fill="none" xmlns="http://www.w3.org/2000/svg">
<g clip-path="url(#clip0_108_4176)">
<path d="M13.404 8.55756C13.3899 9.67194 14.3971 10.2938 15.1559 10.6636C15.9355 11.043 16.1974 11.2862 16.1944 11.6254C16.1885 12.1447 15.5725 12.3738 14.996 12.3827C13.9902 12.3984 13.4055 12.1112 12.9406 11.894L12.5783 13.5894C13.0447 13.8044 13.9084 13.9918 14.8041 14C16.9063 14 18.2818 12.9622 18.2893 11.3532C18.2975 9.31114 15.4647 9.19807 15.484 8.28529C15.4907 8.00856 15.7548 7.71322 16.3335 7.63809C16.6199 7.60015 17.4107 7.57114 18.3071 7.98401L18.659 6.34369C18.1769 6.16812 17.5573 6 16.7858 6C14.807 6 13.4152 7.05189 13.404 8.55756ZM22.0401 6.14134C21.6562 6.14134 21.3326 6.36526 21.1883 6.70895L18.1851 13.8795H20.2859L20.704 12.7242L23.2712 12.7242L23.5138 13.8795H25.3653L23.7496 6.14134H22.0401ZM22.3339 8.23173L22.9402 11.1374H21.2798L22.3339 8.23173ZM10.8569 6.14134L9.20094 13.8795H11.2028L12.858 6.14134L10.8569 6.14134ZM7.89538 6.14134L5.81169 11.4082L4.96884 6.92989C4.8699 6.42998 4.47934 6.14134 4.04565 6.14134H0.639285L0.591675 6.366C1.29095 6.51776 2.08544 6.76251 2.56675 7.02436C2.86134 7.1843 2.9454 7.32416 3.04211 7.7043L4.63854 13.8795H6.75422L9.99766 6.14134H7.89538Z" fill="#1B2073"/>
<path d="M0.591675 0H26.0823V2.66667H0.591675V0Z" fill="#1B2073"/>
<path d="M0.591675 17.3334H26.0823V20H0.591675V17.3334Z" fill="#F7B802"/>
</g>
<defs>
<clipPath id="clip0_108_4176">
<rect width="26.25" height="20" fill="white" transform="translate(0.591675)"/>
</clipPath>
</defs>
</svg>
