<svg xmlns="http://www.w3.org/2000/svg" width="500" height="500" style="width:100%;height:100%;transform:translate3d(0,0,0);content-visibility:visible" viewBox="0 0 500 500"><defs><clipPath id="k"><path d="M0 0h500v500H0z"/></clipPath><clipPath id="s"><path d="M0 0h500v500H0z"/></clipPath><clipPath id="q"><path d="M0 0h500v500H0z"/></clipPath><clipPath id="i"><path d="M0 0h500v500H0z"/></clipPath><clipPath id="p"><path d="M0 0h500v500H0z"/></clipPath><clipPath id="n"><path d="M0 0h500v500H0z"/></clipPath><clipPath id="j"><path d="M0 0h500v500H0z"/></clipPath><clipPath id="l"><path d="M0 0h500v500H0z"/></clipPath><filter id="a" width="100%" height="100%" x="0%" y="0%" filterUnits="objectBoundingBox"><feComponentTransfer in="SourceGraphic"><feFuncA tableValues="1.0 0.0" type="table"/></feComponentTransfer></filter><filter id="c" width="100%" height="100%" x="0%" y="0%" filterUnits="objectBoundingBox"><feComponentTransfer in="SourceGraphic"><feFuncA tableValues="1.0 0.0" type="table"/></feComponentTransfer></filter><filter id="e" width="100%" height="100%" x="0%" y="0%" filterUnits="objectBoundingBox"><feComponentTransfer in="SourceGraphic"><feFuncA tableValues="1.0 0.0" type="table"/></feComponentTransfer></filter><filter id="g" width="100%" height="100%" x="0%" y="0%" filterUnits="objectBoundingBox"><feComponentTransfer in="SourceGraphic"><feFuncA tableValues="1.0 0.0" type="table"/></feComponentTransfer></filter><mask id="t" mask-type="alpha"><g filter="url(#a)"><path fill="#fff" d="M0 0h500v500H0z" opacity="0"/><use xmlns:ns1="http://www.w3.org/1999/xlink" ns1:href="#b"/></g></mask><mask id="r" mask-type="alpha"><g filter="url(#c)"><path fill="#fff" d="M0 0h500v500H0z" opacity="0"/><use xmlns:ns2="http://www.w3.org/1999/xlink" ns2:href="#d"/></g></mask><mask id="o" mask-type="alpha"><g filter="url(#e)"><path fill="#fff" d="M0 0h500v500H0z" opacity="0"/><use xmlns:ns3="http://www.w3.org/1999/xlink" ns3:href="#f"/></g></mask><mask id="m" mask-type="alpha"><g filter="url(#g)"><path fill="#fff" d="M0 0h500v500H0z" opacity="0"/><use xmlns:ns4="http://www.w3.org/1999/xlink" ns4:href="#h"/></g></mask><path id="b" fill-opacity="0" stroke-linecap="round" stroke-linejoin="round" class="primary design" style="display:none"/><path id="h" fill-opacity="0" stroke-linecap="round" stroke-linejoin="round" class="primary design" style="display:none"/><g id="d" fill-opacity="0" stroke-linecap="round" stroke-linejoin="round" clip-path="url(#i)" style="display:none"><path class="primary design" style="display:none"/><path class="primary design" style="display:none"/></g><g id="f" fill-opacity="0" stroke-linecap="round" stroke-linejoin="round" clip-path="url(#j)" style="display:none"><path class="primary design" style="display:none"/><path class="primary design" style="display:none"/></g></defs><g clip-path="url(#k)"><g clip-path="url(#l)" opacity="0" style="display:block"><path class="primary design" style="display:none"/><g class="primary design" mask="url(#m)" style="display:none"><path/><path fill="none"/></g><path fill="#121330" d="M0-10h-.24C-5.75-9.86-10.13-5.27-10 .24-9.87 5.67-5.41 10 0 10h.24C5.75 9.86 10.13 5.27 10-.24 9.87-5.67 5.41-10 0-10zM-1.34 4c-.26 0-.51-.1-.71-.29l-2.5-2.51A.996.996 0 1 1-3.14-.21l1.8 1.8 4.81-4.8A.996.996 0 1 1 4.88-1.8L-.63 3.71c-.2.19-.45.29-.71.29z" class="primary design" opacity="1" style="display:block" transform="translate(250 250) scale(20.83)"/></g><g clip-path="url(#n)" opacity="0" style="display:block"><g class="primary design" mask="url(#o)" style="display:none"><path/><path fill="none"/></g><path fill="#121330" d="M0-10h-.24C-5.75-9.86-10.13-5.27-10 .24-9.87 5.67-5.41 10 0 10h.24C5.75 9.86 10.13 5.27 10-.24 9.87-5.67 5.41-10 0-10z" class="primary design" opacity="1" style="display:block" transform="translate(250 250) scale(20.83)"/><path class="primary design" style="display:none"/></g><g style="display:block"><g class="primary design" clip-path="url(#p)" opacity="0" style="display:none"><path/><path fill="none"/></g></g><g clip-path="url(#q)" style="display:block"><g class="primary design" mask="url(#r)" style="display:none"><path fill="none"/><path/></g><path fill="#121330" d="M0-10h-.24C-5.75-9.86-10.13-5.27-10 .24-9.87 5.67-5.41 10 0 10h.24C5.75 9.86 10.13 5.27 10-.24 9.87-5.67 5.41-10 0-10zM-1.34 4c-.26 0-.51-.1-.71-.29l-2.5-2.51A.996.996 0 1 1-3.14-.21l1.8 1.8 4.81-4.8A.996.996 0 1 1 4.88-1.8L-.63 3.71c-.2.19-.45.29-.71.29z" class="primary design" style="display:block" transform="translate(250 250) scale(20.83)"/><path class="primary design" style="display:none"/></g><g clip-path="url(#s)" opacity="0" style="display:block"><g class="primary design" mask="url(#t)" style="display:none"><path/><path fill="none"/></g><path class="primary design" style="display:none"/></g><g class="com" style="display:none"><path/><path/><path/><path/><path/><path/><path/><path/><path/><path/><path/><path/></g></g></svg>