<svg width="18" height="18" viewBox="0 0 18 18" fill="none" xmlns="http://www.w3.org/2000/svg">
<path fill-rule="evenodd" clip-rule="evenodd" d="M0.666748 1.50002C0.666748 1.03978 1.03984 0.666687 1.50008 0.666687H16.5001C16.9603 0.666687 17.3334 1.03978 17.3334 1.50002V3.65484C17.3334 4.09687 17.1578 4.52079 16.8453 4.83335L11.5001 10.1785V14.8334C11.5001 15.149 11.3217 15.4376 11.0394 15.5787L7.70609 17.2454C7.44777 17.3745 7.14099 17.3607 6.89531 17.2089C6.64963 17.0571 6.50008 16.7888 6.50008 16.5V10.1785L1.1549 4.83335C0.842342 4.52079 0.666748 4.09687 0.666748 3.65484V1.50002ZM2.33341 2.33335V3.65484L7.92267 9.2441C8.07895 9.40038 8.16675 9.61234 8.16675 9.83335V15.1517L9.83342 14.3183V9.83335C9.83342 9.61234 9.92121 9.40038 10.0775 9.2441L15.6667 3.65484V2.33335H2.33341Z" fill="#8A8A8A"/>
</svg>
