<svg xmlns="http://www.w3.org/2000/svg" width="500" height="500" style="width:100%;height:100%;transform:translate3d(0,0,0);content-visibility:visible" viewBox="0 0 500 500"><defs><clipPath id="a"><path d="M0 0h500v500H0z"/></clipPath><clipPath id="c"><path d="M0 0h500v500H0z"/></clipPath><clipPath id="b"><path d="M0 0h500v500H0z"/></clipPath></defs><g clip-path="url(#a)"><g clip-path="url(#b)" style="display:block"><path fill="none" class="primary design" style="display:none"/><g fill="none" class="primary design" style="display:none"><path/><path/><path/></g><g fill="none" class="primary design" style="display:none"><path/><path/><path/></g><g class="primary design" style="display:none"><path/><path/><path/><path/></g><g fill="#121330" class="primary design" style="display:block"><path d="M380.19 62.324h-46.868v-5c0-8.54-7.082-15.622-15.623-15.622H182.304c-8.54 0-15.622 7.082-15.622 15.622v5h-46.868c-19.996 0-36.452 16.247-36.452 36.452V421.85c0 19.997 16.456 36.453 36.452 36.453H380.19c19.997 0 36.453-16.456 36.453-36.453V98.776c0-20.205-16.456-36.452-36.453-36.452zM197.926 72.947h104.15v41.66h-104.15v-41.66zm187.47 348.902c0 2.917-2.291 5.208-5.208 5.208H119.814c-2.916 0-5.207-2.291-5.207-5.208V98.776c0-2.916 2.291-5.207 5.207-5.207h46.868v36.66c0 8.749 7.082 15.623 15.622 15.623H317.7c8.54 0 15.623-6.874 15.623-15.623V93.57h46.867c2.917 0 5.208 2.29 5.208 5.207V421.85z"/><path d="M338.53 228.964H161.473c-8.54 0-15.622 7.082-15.622 15.622s7.082 15.623 15.622 15.623H338.53c8.54 0 15.623-7.082 15.623-15.623 0-8.54-7.082-15.622-15.623-15.622zm0 57.699H161.473c-8.54 0-15.622 6.874-15.622 15.622 0 8.54 7.082 15.623 15.622 15.623H338.53c8.54 0 15.623-7.083 15.623-15.623 0-8.748-7.082-15.622-15.623-15.622zm-104.15 57.074h-72.906c-8.54 0-15.622 6.874-15.622 15.622 0 8.749 7.082 15.623 15.622 15.623h72.905c8.54 0 15.623-7.082 15.623-15.623 0-8.54-7.082-15.622-15.623-15.622z"/></g></g><g clip-path="url(#c)" opacity="0" style="display:block"><path fill="none" class="primary design" style="display:none"/><g class="primary design" style="display:none"><path/><path/><path/><path/></g><g fill="none" class="primary design" style="display:none"><path/><path/><path/></g></g><g class="com" style="display:none"><path/><path/><path/><path/><path/><path/><path/><path/><path/><path/><path/><path/></g></g></svg>