<svg xmlns="http://www.w3.org/2000/svg" width="500" height="500" style="width:100%;height:100%;transform:translate3d(0,0,0);content-visibility:visible" viewBox="0 0 500 500"><defs><clipPath id="a"><path d="M0 0h500v500H0z"/></clipPath><clipPath id="g"><path d="M0 0h500v500H0z"/></clipPath><clipPath id="h"><path fill="#fff" d="M153.997 10.321h-296v210h296v-210"/></clipPath><clipPath id="f"><path d="M0 0h500v500H0z"/></clipPath><clipPath id="e"><path d="M0 0h500v500H0z"/></clipPath><clipPath id="d"><path d="M0 0h500v500H0z"/></clipPath><clipPath id="c"><path d="M0 0h500v500H0z"/></clipPath><clipPath id="b"><path d="M0 0h500v500H0z"/></clipPath></defs><g clip-path="url(#a)"><g clip-path="url(#b)" opacity="0" style="display:block"><path fill="#121330" d="M8.25-3.643 1-8.702c-.6-.42-1.4-.42-2 0l-7.25 5.059c-.47.32-.75.861-.75 1.431v9.48c0 .96.79 1.75 1.75 1.75h3c1.52 0 2.75-1.23 2.75-2.75v-3.5c0-.14.11-.25.25-.25h2.5c.14 0 .25.11.25.25v3.5c0 1.52 1.23 2.75 2.75 2.75h3c.96 0 1.75-.79 1.75-1.75v-9.48c0-.57-.28-1.111-.75-1.431zM7.5 7.268c0 .14-.11.25-.25.25h-3c-.69 0-1.25-.56-1.25-1.25v-3.5c0-.96-.79-1.75-1.75-1.75h-2.5c-.96 0-1.75.79-1.75 1.75v3.5c0 .69-.56 1.25-1.25 1.25h-3c-.14 0-.25-.11-.25-.25v-9.48c0-.08.04-.161.11-.211l7.25-5.05c.09-.06.2-.06.29 0l7.25 5.05c.07.05.11.121.11.211v9.48H7.5z" class="primary design" opacity="1" style="display:block" transform="translate(250.002 249.637) scale(20.83)"/><path fill="none" class="primary design" style="display:none"/><path fill="none" class="primary design" style="display:none"/><path fill="none" class="primary design" style="display:none"/><path style="display:none"/></g><g clip-path="url(#c)" opacity="0" style="display:block"><path fill="#121330" d="M8.25-3.643 1-8.702c-.6-.42-1.4-.42-2 0l-7.25 5.059c-.47.32-.75.861-.75 1.431v9.48c0 .96.79 1.75 1.75 1.75h3c1.52 0 2.75-1.23 2.75-2.75v-3.5c0-.14.11-.25.25-.25h2.5c.14 0 .25.11.25.25v3.5c0 1.52 1.23 2.75 2.75 2.75h3c.96 0 1.75-.79 1.75-1.75v-9.48c0-.57-.28-1.111-.75-1.431zM7.5 7.268c0 .14-.11.25-.25.25h-3c-.69 0-1.25-.56-1.25-1.25v-3.5c0-.96-.79-1.75-1.75-1.75h-2.5c-.96 0-1.75.79-1.75 1.75v3.5c0 .69-.56 1.25-1.25 1.25h-3c-.14 0-.25-.11-.25-.25v-9.48c0-.08.04-.161.11-.211l7.25-5.05c.09-.06.2-.06.29 0l7.25 5.05c.07.05.11.121.11.211v9.48H7.5z" class="primary design" opacity="1" style="display:block" transform="translate(250.002 249.637) scale(20.83)"/><path fill="none" class="primary design" style="display:none"/><path fill="none" class="primary design" style="display:none"/></g><g clip-path="url(#d)" opacity="0" style="display:block"><path fill="#121330" d="M8.25-3.643 1-8.702c-.6-.42-1.4-.42-2 0l-7.25 5.059c-.47.32-.75.861-.75 1.431v9.48c0 .96.79 1.75 1.75 1.75h3c1.52 0 2.75-1.23 2.75-2.75v-3.5c0-.14.11-.25.25-.25h2.5c.14 0 .25.11.25.25v3.5c0 1.52 1.23 2.75 2.75 2.75h3c.96 0 1.75-.79 1.75-1.75v-9.48c0-.57-.28-1.111-.75-1.431zM7.5 7.268c0 .14-.11.25-.25.25h-3c-.69 0-1.25-.56-1.25-1.25v-3.5c0-.96-.79-1.75-1.75-1.75h-2.5c-.96 0-1.75.79-1.75 1.75v3.5c0 .69-.56 1.25-1.25 1.25h-3c-.14 0-.25-.11-.25-.25v-9.48c0-.08.04-.161.11-.211l7.25-5.05c.09-.06.2-.06.29 0l7.25 5.05c.07.05.11.121.11.211v9.48H7.5z" class="primary design" opacity="1" style="display:block" transform="translate(250.002 249.637) scale(20.83)"/><path fill="none" class="primary design" style="display:none"/><path fill="none" class="primary design" style="display:none"/></g><g clip-path="url(#e)" opacity="0" style="display:block"><path fill="#121330" d="M8.25-3.643 1-8.702c-.6-.42-1.4-.42-2 0l-7.25 5.059c-.47.32-.75.861-.75 1.431v9.48c0 .96.79 1.75 1.75 1.75h3c1.52 0 2.75-1.23 2.75-2.75v-3.5c0-.14.11-.25.25-.25h2.5c.14 0 .25.11.25.25v3.5c0 1.52 1.23 2.75 2.75 2.75h3c.96 0 1.75-.79 1.75-1.75v-9.48c0-.57-.28-1.111-.75-1.431zM7.5 7.268c0 .14-.11.25-.25.25h-3c-.69 0-1.25-.56-1.25-1.25v-3.5c0-.96-.79-1.75-1.75-1.75h-2.5c-.96 0-1.75.79-1.75 1.75v3.5c0 .69-.56 1.25-1.25 1.25h-3c-.14 0-.25-.11-.25-.25v-9.48c0-.08.04-.161.11-.211l7.25-5.05c.09-.06.2-.06.29 0l7.25 5.05c.07.05.11.121.11.211v9.48H7.5z" class="primary design" opacity="1" style="display:block" transform="translate(250.002 249.637) scale(20.83)"/><path class="primary design" style="display:none"/><path fill="none" class="primary design" style="display:none"/><path fill="none" class="primary design" style="display:none"/></g><g clip-path="url(#f)" style="display:block"><path fill="#121330" d="M8.25-3.643 1-8.702c-.6-.42-1.4-.42-2 0l-7.25 5.059c-.47.32-.75.861-.75 1.431v9.48c0 .96.79 1.75 1.75 1.75h3c1.52 0 2.75-1.23 2.75-2.75v-3.5c0-.14.11-.25.25-.25h2.5c.14 0 .25.11.25.25v3.5c0 1.52 1.23 2.75 2.75 2.75h3c.96 0 1.75-.79 1.75-1.75v-9.48c0-.57-.28-1.111-.75-1.431zM7.5 7.268c0 .14-.11.25-.25.25h-3c-.69 0-1.25-.56-1.25-1.25v-3.5c0-.96-.79-1.75-1.75-1.75h-2.5c-.96 0-1.75.79-1.75 1.75v3.5c0 .69-.56 1.25-1.25 1.25h-3c-.14 0-.25-.11-.25-.25v-9.48c0-.08.04-.161.11-.211l7.25-5.05c.09-.06.2-.06.29 0l7.25 5.05c.07.05.11.121.11.211v9.48H7.5z" class="primary design" style="display:block" transform="translate(250.002 249.637) scale(20.83)"/><path class="primary design" style="display:none"/><path fill="none" class="primary design" style="display:none"/></g><g clip-path="url(#g)" opacity="0" style="display:block"><path class="primary design" style="display:none"/><path fill="none" class="primary design" style="display:none"/><g class="primary design" clip-path="url(#h)" style="display:none"><path fill="none"/></g></g><path style="display:none"/></g></svg>