<svg width="14" height="20" viewBox="0 0 14 20" fill="none" xmlns="http://www.w3.org/2000/svg">
<path d="M11 4C11 6.20914 9.20915 8 7.00001 8C4.79087 8 3.00001 6.20914 3.00001 4C3.00001 1.79086 4.79087 0 7.00001 0C9.20915 0 11 1.79086 11 4Z" fill="#3C3C3C"/>
<path d="M0.890901 7.99011C1.44865 7.37757 2.39736 7.33314 3.0099 7.89089C4.13843 8.91846 5.52338 9.5 7.00001 9.5C8.47664 9.5 9.86159 8.91846 10.9901 7.89089C11.6027 7.33314 12.5514 7.37757 13.1091 7.99011C13.6669 8.60265 13.6224 9.55136 13.0099 10.1091C12.2459 10.8047 11.3788 11.3753 10.4351 11.7843L11.6022 17.9113C11.8087 18.9955 10.9775 20 9.87377 20C9.0664 20 8.36264 19.4505 8.16683 18.6673L7.62128 16.4851C7.55001 16.2 7.29386 16 7.00001 16C6.70616 16 6.45001 16.2 6.37874 16.4851L5.8332 18.6673C5.63738 19.4505 4.93362 20 4.12626 20C3.02252 20 2.19133 18.9955 2.39786 17.9113L3.5649 11.7843C2.6212 11.3753 1.75407 10.8047 0.990121 10.1091C0.377577 9.55136 0.333154 8.60265 0.890901 7.99011Z" fill="#3C3C3C"/>
</svg>
