<svg width="14" height="20" viewBox="0 0 14 20" fill="none" xmlns="http://www.w3.org/2000/svg">
<path d="M4.00006 3C4.00006 1.34315 5.3432 0 7.00006 0C8.65691 0 10.0001 1.34315 10.0001 3C10.0001 4.65685 8.65691 6 7.00006 6C5.3432 6 4.00006 4.65685 4.00006 3Z" fill="#3C3C3C"/>
<path d="M5.66234 7H8.33778C9.62907 7 10.7755 7.82629 11.1838 9.05132L13.0613 14.6838C13.2772 15.3313 12.7952 16 12.1126 16H10.0001L9.18943 19.2425C9.07813 19.6877 8.67815 20 8.21928 20H5.78084C5.32197 20 4.92199 19.6877 4.81069 19.2425L4.00006 16H1.88749C1.20493 16 0.722958 15.3313 0.938802 14.6838L2.81629 9.05132C3.22463 7.82629 4.37105 7 5.66234 7Z" fill="#3C3C3C"/>
</svg>
