<svg width="10" height="20" viewBox="0 0 10 20" fill="none" xmlns="http://www.w3.org/2000/svg">
<path d="M2 3C2 1.34315 3.34315 0 5 0C6.65685 0 8 1.34315 8 3C8 4.65685 6.65685 6 5 6C3.34315 6 2 4.65685 2 3Z" fill="#3C3C3C"/>
<path d="M0 10C0 8.34315 1.34315 7 3 7H7C8.65685 7 10 8.34315 10 10V13.4338C10 13.7851 9.8157 14.1106 9.5145 14.2913L7.5 15.5V19C7.5 19.5523 7.05228 20 6.5 20H3.5C2.94772 20 2.5 19.5523 2.5 19V15.5L0.485504 14.2913C0.184299 14.1106 0 13.7851 0 13.4338V10Z" fill="#3C3C3C"/>
</svg>
