<svg width="20" height="22" viewBox="0 0 20 22" fill="none" xmlns="http://www.w3.org/2000/svg">
<path d="M15 12V6C15 5.73478 14.8946 5.48043 14.7071 5.29289C14.5196 5.10536 14.2652 5 14 5H2C1.73478 5 1.48043 5.10536 1.29289 5.29289C1.10536 5.48043 1 5.73478 1 6V18C1 18.2652 1.10536 18.5196 1.29289 18.7071C1.48043 18.8946 1.73478 19 2 19H10.5M5 19V5V2C5 1.73478 5.10536 1.48043 5.29289 1.29289C5.48043 1.10536 5.73478 1 6 1H10C10.2652 1 10.5196 1.10536 10.7071 1.29289C10.8946 1.48043 11 1.73478 11 2V5V13.5" stroke="black" stroke-linecap="round" stroke-linejoin="round"/>
<path d="M14.5 21C15.0909 21 15.6761 20.8836 16.2221 20.6575C16.768 20.4313 17.2641 20.0998 17.682 19.682C18.0998 19.2641 18.4313 18.768 18.6575 18.2221C18.8836 17.6761 19 17.0909 19 16.5C19 15.9091 18.8836 15.3239 18.6575 14.7779C18.4313 14.232 18.0998 13.7359 17.682 13.318C17.2641 12.9002 16.768 12.5687 16.2221 12.3425C15.6761 12.1164 15.0909 12 14.5 12C13.3065 12 12.1619 12.4741 11.318 13.318C10.4741 14.1619 10 15.3065 10 16.5C10 17.6935 10.4741 18.8381 11.318 19.682C12.1619 20.5259 13.3065 21 14.5 21Z" stroke="black"/>
<path d="M14 15V17H16" stroke="black" stroke-linecap="round" stroke-linejoin="round"/>
<path d="M3.5 19V21" stroke="black" stroke-linecap="round"/>
</svg>
