<svg xmlns="http://www.w3.org/2000/svg" width="500" height="500" style="width:100%;height:100%;transform:translate3d(0,0,0);content-visibility:visible" viewBox="0 0 500 500"><defs><clipPath id="g"><path d="M0 0h500v500H0z"/></clipPath><clipPath id="l"><path d="M0 0h500v500H0z"/></clipPath><clipPath id="j"><path d="M0 0h500v500H0z"/></clipPath><clipPath id="h"><path d="M0 0h500v500H0z"/></clipPath><filter id="a" width="100%" height="100%" x="0%" y="0%" filterUnits="objectBoundingBox"><feComponentTransfer in="SourceGraphic"><feFuncA tableValues="1.0 0.0" type="table"/></feComponentTransfer></filter><filter id="c" width="100%" height="100%" x="0%" y="0%" filterUnits="objectBoundingBox"><feComponentTransfer in="SourceGraphic"><feFuncA tableValues="1.0 0.0" type="table"/></feComponentTransfer></filter><filter id="e" width="100%" height="100%" x="0%" y="0%" filterUnits="objectBoundingBox"><feComponentTransfer in="SourceGraphic"><feFuncA tableValues="1.0 0.0" type="table"/></feComponentTransfer></filter><mask id="m" mask-type="alpha"><g filter="url(#a)"><path fill="#fff" d="M0 0h500v500H0z" opacity="0"/><use xmlns:ns1="http://www.w3.org/1999/xlink" ns1:href="#b"/></g></mask><mask id="k" mask-type="alpha"><g filter="url(#c)"><path fill="#fff" d="M0 0h500v500H0z" opacity="0"/><use xmlns:ns2="http://www.w3.org/1999/xlink" ns2:href="#d"/></g></mask><mask id="i" mask-type="alpha"><g filter="url(#e)"><path fill="#fff" d="M0 0h500v500H0z" opacity="0"/><use xmlns:ns3="http://www.w3.org/1999/xlink" ns3:href="#f"/></g></mask><g id="b" class="primary design" style="display:none"><path fill-opacity="0"/><path/></g><g id="d" class="primary design" style="display:none"><path/><path fill-opacity="0"/></g><path id="f" fill-opacity="0" stroke="#121330" stroke-linecap="round" stroke-linejoin="round" stroke-width="95" d="M249.998 57.293v41.664m113.773 185.88a41.662 41.662 0 0 1-4.398-18.633v-57.872c0-60.406-48.968-109.376-109.374-109.376h-.002c-60.406 0-109.374 48.97-109.374 109.376v57.872a41.662 41.662 0 0 1-4.398 18.633l-37.269 74.539H401.04l-37.269-74.539z" class="primary design" style="display:block"/></defs><g clip-path="url(#g)"><g clip-path="url(#h)" opacity="0" style="display:block"><g mask="url(#i)" style="display:block"><path fill="#121330" d="M191.637 365.979c.83 24.573 1.467 43.376 1.467 43.376.664 19.007 30.744 50.227 66.494 48.978 38.027-1.328 63.628-34.491 62.965-53.499 0 0-.813-24.007-1.8-53.218" class="primary design"/></g><path fill="#121330" d="m7.89 6.613-1.72-3.44a.8.8 0 0 1-.1-.409V.103c0-2.99-2.2-5.479-5.07-5.949v-1.218a1 1 0 1 0-2 0v1.218c-2.87.47-5.07 2.959-5.07 5.949v2.661a.8.8 0 0 1-.1.409l-1.72 3.44c-.16.31-.14.681.04.971.18.3.5.48.85.48H7c.35 0 .67-.18.85-.48.18-.29.2-.661.04-.971z" class="primary design" opacity="1" style="display:block" transform="translate(249.996 207.062) scale(20.83)"/></g><g clip-path="url(#j)" style="display:block"><g mask="url(#k)" style="display:none"><path class="primary design"/></g><g fill="none" class="primary design" style="display:none"><path/><path/></g><path class="primary design" style="display:none"/><g class="primary design" style="display:none"><path/><path/></g><path fill="#121330" d="m414.345 344.81-35.828-71.654c-1.458-2.5-2.083-5.395-2.083-8.52v-55.429c0-62.281-45.826-114.127-105.608-123.917V59.919c0-11.498-9.31-20.83-20.83-20.83-11.519 0-20.83 9.332-20.83 20.83v25.37c-59.782 9.79-105.608 61.637-105.608 123.918v55.429c0 3.125-.625 6.02-2.083 8.52L85.647 344.81c-3.332 6.457-2.916 14.185.834 20.226 3.749 6.249 10.415 9.998 17.705 9.998h291.62c7.29 0 13.956-3.75 17.706-9.998 3.749-6.041 4.166-13.769.833-20.226zm-143.519 61.45h-86.444c6.873 29.787 33.744 52.075 65.614 52.075 31.87 0 58.74-22.288 65.615-52.075h-44.785z" class="primary design" style="display:block"/></g><g clip-path="url(#l)" opacity="0" style="display:block"><g class="primary design" style="display:none"><path/><path/></g><g mask="url(#m)" style="display:none"><path class="primary design"/></g><g class="primary design" style="display:none"><path/><path fill="none"/><path fill="none"/></g><g class="primary design" style="display:none"><path/><path fill="none"/><path/></g><path class="primary design" style="display:none"/></g><g class="com" style="display:none"><path/><path/><path/><path/><path/><path/><path/><path/><path/><path/><path/><path/></g></g></svg>