<svg xmlns="http://www.w3.org/2000/svg" width="500" height="500" style="width:100%;height:100%;transform:translate3d(0,0,0);content-visibility:visible" viewBox="0 0 500 500"><defs><clipPath id="a"><path d="M0 0h500v500H0z"/></clipPath><clipPath id="d"><path d="M0 0h500v500H0z"/></clipPath><clipPath id="c"><path d="M0 0h500v500H0z"/></clipPath><clipPath id="b"><path d="M0 0h500v500H0z"/></clipPath></defs><g clip-path="url(#a)"><g fill="none" stroke="#121330" stroke-linecap="round" stroke-linejoin="round" stroke-width="31.3" clip-path="url(#b)" opacity="0" style="display:block"><path d="m-46.845-33.141-.03 27.931c0 25.889 20.987 46.876 46.876 46.876 25.888 0 46.874-20.987 46.874-46.876l.038-35.454" class="primary design" opacity="1" style="display:block" transform="rotate(-2 11612.808 -7179.672)"/><path d="M249.998 57.293v41.664m113.773 185.88a41.662 41.662 0 0 1-4.398-18.633v-57.872c0-60.406-48.968-109.376-109.374-109.376h-.002c-60.406 0-109.374 48.97-109.374 109.376v57.872a41.662 41.662 0 0 1-4.398 18.633l-37.269 74.539H401.04l-37.269-74.539z" class="primary design" opacity="1" style="display:block"/></g><g clip-path="url(#c)" style="display:block"><path class="primary design" style="display:none"/><path class="primary design" style="display:none"/><path fill="#121330" d="M-3.001 5.088-3.002 7c0 1.65 1.35 3 3 3s3-1.35 3-3l.001-1.912h-6zM1.498 7c0 .83-.67 1.5-1.5 1.5s-1.5-.67-1.5-1.5l.001-1.456h3L1.498 7z" class="primary design" style="display:block" transform="translate(250.038 250.002) scale(20.83)"/><path fill="#121330" d="M6.128 1.34c-.08-.18-.13-.37-.13-.56V-2c0-3.05-2.29-5.58-5.25-5.95v-1.3c0-.41-.34-.75-.75-.75s-.75.34-.75.75v1.3c-2.96.37-5.25 2.9-5.25 5.95V.78c0 .19-.05.39-.13.56l-1.79 3.58c-.12.23-.1.51.03.73.14.22.38.35.64.35h14.5c.26 0 .5-.13.64-.36.14-.22.15-.5.03-.73l-1.79-3.57zM-6.042 4.5l1.25-2.49c.19-.38.29-.8.29-1.23V-2c0-2.48 2.02-4.5 4.5-4.5s4.5 2.02 4.5 4.5V.78c0 .42.1.85.29 1.23l1.25 2.49h-12.08z" class="primary design" style="display:block" transform="translate(250.038 250.002) scale(20.83)"/><path fill="none" class="primary design" style="display:none"/><g fill="none" class="primary design" style="display:none"><path/><path/></g></g><g clip-path="url(#d)" opacity="0" style="display:block"><path class="primary design" style="display:none"/><path class="primary design" style="display:none"/><path fill="none" class="primary design" style="display:none"/><g fill="none" class="primary design" style="display:none"><path/><path/></g><g class="primary design" style="display:none"><path/><path fill="none"/></g></g><g class="com" style="display:none"><path/><path/><path/><path/><path/><path/><path/><path/><path/><path/><path/><path/></g></g></svg>