<svg xmlns="http://www.w3.org/2000/svg" width="500" height="500" style="width:100%;height:100%;transform:translate3d(0,0,0);content-visibility:visible" viewBox="0 0 500 500"><defs><clipPath id="c"><path d="M0 0h500v500H0z"/></clipPath><clipPath id="f"><path d="M0 0h500v500H0z"/></clipPath><clipPath id="d"><path d="M0 0h500v500H0z"/></clipPath><path id="a" class="primary design" style="display:none"/><path id="b" class="primary design" style="display:none"/><mask id="g" mask-type="alpha"><use xmlns:ns1="http://www.w3.org/1999/xlink" ns1:href="#a"/></mask><mask id="e" mask-type="alpha"><use xmlns:ns2="http://www.w3.org/1999/xlink" ns2:href="#b"/></mask></defs><g clip-path="url(#c)"><g clip-path="url(#d)" style="display:block"><g class="primary design" mask="url(#e)" style="display:none"><path/><path fill="none"/><path fill="none"/></g><path fill="none" class="primary design" style="display:none"/><g class="primary design" style="display:none"><path fill="none"/><path/></g><g class="primary design" style="display:none"><path/><path/></g><g fill="#121330" class="primary design" style="display:block"><path d="M458.236 244.96c-2.73-113.294-95.423-203.259-208.134-203.259-1.708 0-3.437.02-5.145.062C129.955 44.533 38.97 140.04 41.761 255.042c1.353 55.99 24.725 106.212 61.573 142.769-.02.062-.02.104-.042.166.396.375.834.708 1.23 1.083.874.854 1.832 1.584 2.707 2.417 3.666 3.416 7.332 6.853 11.228 9.998l.375.313a208.336 208.336 0 0 0 52.762 31.182c1.104.438 2.25.77 3.354 1.208 4.228 1.625 8.457 3.25 12.81 4.604.27.083.52.187.792.27.687.209 1.374.375 2.062.584 2.5.75 5.082 1.291 7.623 1.937 1.313.333 2.625.666 3.937.979 2.125.5 4.187 1.166 6.333 1.604.625.125 1.27.187 1.895.312 3.062.583 6.166.938 9.27 1.396 3.103.458 6.144 1.083 9.29 1.395.687.063 1.395.042 2.083.105 3.228.291 6.52.354 9.79.5 2.937.124 5.811.437 8.77.437h.291c1.708 0 3.437-.02 5.145-.063 41.16-1 79.112-14.018 110.92-35.41.291-.209.625-.375.916-.584 4.458-3.041 8.728-6.27 12.936-9.623 1.083-.854 2.187-1.687 3.25-2.562 3.311-2.75 6.477-5.645 9.602-8.603 1.27-1.187 2.624-2.27 3.874-3.479-.02-.062-.02-.125-.042-.187 39.265-38.931 63.178-93.194 61.74-152.83zm-163.474 67.531h-89.694c-34.203 0-64.302 17.185-83.195 43.347C98.73 327.947 84.337 292.557 83.4 254.021c-1.083-44.493 15.247-86.736 45.95-118.96 30.704-32.224 72.135-50.575 116.628-51.658l4.124-.042c89.632 0 164.328 72.947 166.494 162.62.98 40.618-12.685 79.258-38.39 110.211-18.892-26.35-49.075-43.701-83.444-43.701z"/><path d="M259.976 125.021H240c-28.996 0-52.492 23.517-52.492 52.512v40.786c0 28.995 23.496 52.512 52.492 52.512h52.075c11.269 0 20.413-9.144 20.413-20.413v-72.885c0-28.995-23.517-52.512-52.512-52.512z"/></g></g><g clip-path="url(#f)" opacity="0" style="display:block"><g class="primary design" mask="url(#g)" style="display:none"><path fill="none"/><path/><path fill="none"/><path/></g><path fill="none" class="primary design" style="display:none"/><g class="primary design" style="display:none"><path fill="none"/><path/></g><g class="primary design" style="display:none"><path/><path/></g></g><g class="com" style="display:none"><path/><path/><path/><path/><path/><path/><path/><path/><path/><path/><path/><path/></g></g></svg>